<svg width="47" height="48" viewBox="0 0 47 48" fill="none" xmlns="http://www.w3.org/2000/svg">
<path d="M23.5001 17.5001C19.985 17.5001 17.1355 20.4102 17.1355 24.0001C17.1355 27.5899 19.985 30.5001 23.5001 30.5001C27.0151 30.5001 29.8646 27.5899 29.8646 24.0001C29.8646 20.4102 27.0151 17.5001 23.5001 17.5001Z" fill="white"/>
<path fill-rule="evenodd" clip-rule="evenodd" d="M13.2571 6.16303C20.0096 5.39227 26.9905 5.39227 33.7431 6.16303C37.4608 6.58738 40.4594 9.57893 40.8957 13.389C41.7031 20.439 41.7031 27.5611 40.8957 34.6111C40.4594 38.4212 37.4608 41.4128 33.7431 41.8372C26.9905 42.6079 20.0096 42.6079 13.2571 41.8372C9.53937 41.4128 6.54078 38.4212 6.10444 34.6111C5.29706 27.5611 5.29706 20.439 6.10444 13.389C6.54078 9.57893 9.53937 6.58738 13.2571 6.16303ZM33.2917 12.0001C32.2102 12.0001 31.3334 12.8955 31.3334 14.0001C31.3334 15.1047 32.2102 16.0001 33.2917 16.0001C34.3733 16.0001 35.2501 15.1047 35.2501 14.0001C35.2501 12.8955 34.3733 12.0001 33.2917 12.0001ZM14.198 24.0001C14.198 18.7534 18.3627 14.5001 23.5001 14.5001C28.6375 14.5001 32.8021 18.7534 32.8021 24.0001C32.8021 29.2468 28.6375 33.5001 23.5001 33.5001C18.3627 33.5001 14.198 29.2468 14.198 24.0001Z" fill="white"/>
</svg>
