<svg width="24" height="26" viewBox="0 0 24 26" fill="none" xmlns="http://www.w3.org/2000/svg">
<path d="M8.75 11.5C8.75 9.70507 10.2051 8.25 12 8.25C13.7949 8.25 15.25 9.70507 15.25 11.5C15.25 13.2949 13.7949 14.75 12 14.75C10.2051 14.75 8.75 13.2949 8.75 11.5Z" fill="white"/>
<path fill-rule="evenodd" clip-rule="evenodd" d="M3.77354 10.3774C4.11718 6.20845 7.60097 3 11.7841 3H12.216C16.3991 3 19.8829 6.20845 20.2265 10.3774C20.4115 12.622 19.7182 14.8508 18.2925 16.5943L13.4995 22.4561C12.7245 23.4039 11.2756 23.4039 10.5006 22.4561L5.70752 16.5943C4.28187 14.8508 3.58852 12.622 3.77354 10.3774ZM12 6.75C9.37665 6.75 7.25 8.87665 7.25 11.5C7.25 14.1234 9.37665 16.25 12 16.25C14.6234 16.25 16.75 14.1234 16.75 11.5C16.75 8.87665 14.6234 6.75 12 6.75Z" fill="white"/>
</svg>
