<svg width="196" height="53" viewBox="0 0 196 53" fill="none" xmlns="http://www.w3.org/2000/svg">
<path d="M10.616 42.496H29.84V52H0.68V1.6H10.616V42.496ZM74.7989 45.448C69.7109 50.488 63.5189 53.008 56.2229 53.008C48.9269 53.008 42.7349 50.488 37.6469 45.448C32.6069 40.36 30.0869 34.144 30.0869 26.8C30.0869 19.456 32.6069 13.264 37.6469 8.224C42.7349 3.136 48.9269 0.591997 56.2229 0.591997C63.5189 0.591997 69.7109 3.136 74.7989 8.224C79.8869 13.264 82.4309 19.456 82.4309 26.8C82.4309 34.144 79.8869 40.36 74.7989 45.448ZM44.6309 38.68C47.7509 41.752 51.6149 43.288 56.2229 43.288C60.8309 43.288 64.6949 41.752 67.8149 38.68C70.9349 35.56 72.4949 31.6 72.4949 26.8C72.4949 22 70.9349 18.04 67.8149 14.92C64.6949 11.8 60.8309 10.24 56.2229 10.24C51.6149 10.24 47.7509 11.8 44.6309 14.92C41.5109 18.04 39.9509 22 39.9509 26.8C39.9509 31.6 41.5109 35.56 44.6309 38.68ZM138.878 24.928V28.816C138.878 36.016 136.574 41.848 131.966 46.312C127.358 50.776 121.406 53.008 114.11 53.008C106.334 53.008 99.8784 50.488 94.7424 45.448C89.6544 40.36 87.1104 34.168 87.1104 26.872C87.1104 19.528 89.6304 13.312 94.6704 8.224C99.7584 3.136 106.046 0.591997 113.534 0.591997C118.238 0.591997 122.534 1.672 126.422 3.832C130.31 5.944 133.334 8.776 135.494 12.328L126.998 17.224C125.798 15.16 123.974 13.48 121.526 12.184C119.126 10.888 116.438 10.24 113.462 10.24C108.662 10.24 104.702 11.824 101.582 14.992C98.5104 18.112 96.9744 22.072 96.9744 26.872C96.9744 31.624 98.5344 35.56 101.654 38.68C104.822 41.752 108.998 43.288 114.182 43.288C118.022 43.288 121.19 42.448 123.686 40.768C126.23 39.04 127.958 36.688 128.87 33.712H113.606V24.928H138.878ZM188.354 45.448C183.266 50.488 177.074 53.008 169.778 53.008C162.482 53.008 156.29 50.488 151.202 45.448C146.162 40.36 143.642 34.144 143.642 26.8C143.642 19.456 146.162 13.264 151.202 8.224C156.29 3.136 162.482 0.591997 169.778 0.591997C177.074 0.591997 183.266 3.136 188.354 8.224C193.442 13.264 195.986 19.456 195.986 26.8C195.986 34.144 193.442 40.36 188.354 45.448ZM158.186 38.68C161.306 41.752 165.17 43.288 169.778 43.288C174.386 43.288 178.25 41.752 181.37 38.68C184.49 35.56 186.05 31.6 186.05 26.8C186.05 22 184.49 18.04 181.37 14.92C178.25 11.8 174.386 10.24 169.778 10.24C165.17 10.24 161.306 11.8 158.186 14.92C155.066 18.04 153.506 22 153.506 26.8C153.506 31.6 155.066 35.56 158.186 38.68Z" fill="black"/>
</svg>
