<svg width="47" height="48" viewBox="0 0 47 48" fill="none" xmlns="http://www.w3.org/2000/svg">
<path fill-rule="evenodd" clip-rule="evenodd" d="M36.1962 39.5802L36.1975 39.5767L36.2316 39.4897L42.1042 9.25161V9.15339C42.1042 8.39999 41.8317 7.74227 41.2385 7.34775C40.7193 7.00242 40.1225 6.97783 39.704 7.01027C39.2614 7.04458 38.844 7.15741 38.5551 7.25133C38.4065 7.29965 38.2821 7.34621 38.1931 7.38142C38.1485 7.3991 38.1123 7.41409 38.0859 7.42527L38.0601 7.43638L5.3171 20.5543L5.30809 20.5576C5.29041 20.5641 5.26702 20.573 5.23878 20.5843C5.18247 20.6067 5.10582 20.6387 5.01577 20.6804C4.83897 20.7622 4.5947 20.8885 4.34696 21.0617C3.92621 21.356 3.12503 22.0526 3.26031 23.1571C3.37237 24.0719 3.98984 24.6529 4.40612 24.9537C4.62927 25.115 4.84275 25.2313 4.99908 25.3073C5.07829 25.3458 5.14558 25.3753 5.19569 25.3961C5.22081 25.4066 5.24181 25.4149 5.25807 25.4212L5.27887 25.4291L5.29218 25.4342L11.0208 27.4038C11.0014 27.7709 11.0371 28.1451 11.1324 28.5144L14.0019 39.6312C14.3422 40.9493 15.5098 41.8675 16.8445 41.8665C18.0409 41.8656 19.102 41.1264 19.5528 40.0236L24.0328 35.1314L31.7271 41.1559L31.8365 41.2047C32.5355 41.5162 33.1886 41.6149 33.7858 41.5316C34.3821 41.4484 34.856 41.193 35.2119 40.9022C35.5622 40.616 35.8022 40.293 35.9532 40.0498C36.0299 39.9263 36.0871 39.8177 36.1267 39.736C36.1466 39.6949 36.1623 39.6602 36.1741 39.6331L36.1889 39.5983L36.1941 39.5854L36.1962 39.5802ZM13.9728 27.7497C13.9076 27.497 14.0099 27.2303 14.2259 27.0902L33.6565 14.4884C33.6565 14.4884 34.7994 13.7798 34.7585 14.4884C34.7585 14.4884 34.9625 14.6135 34.3501 15.197C33.7692 15.7511 20.5014 28.8333 19.1589 30.157C19.0814 30.2334 19.0351 30.3211 19.0078 30.4275L16.8423 38.8665L13.9728 27.7497Z" fill="white"/>
</svg>
