<svg width="73" height="73" viewBox="0 0 73 73" fill="none" xmlns="http://www.w3.org/2000/svg">
<path fill-rule="evenodd" clip-rule="evenodd" d="M22.22 29.8699V14.9467L46.2502 4.64624L70.2805 14.9467V34.3778C70.2805 47.8995 60.4394 59.5839 47.1259 61.9049L46.2502 62.058L45.3745 61.9049C42.9437 61.4812 40.6286 60.7452 38.468 59.7429C38.4587 59.0245 38.2598 58.3499 37.9193 57.7668C38.8908 57.3883 39.6829 56.644 40.1244 55.7054C41.9711 56.5976 43.9551 57.2576 46.0415 57.6442C46.1793 57.6697 46.3208 57.6697 46.4586 57.6442C57.5878 55.5835 65.8033 45.7492 65.8033 34.4121V18.5333C65.8033 18.0751 65.5301 17.661 65.109 17.4806L46.7008 9.59879C46.4129 9.47555 46.0872 9.47555 45.7993 9.59879L27.3976 17.4806C26.9765 17.6611 26.7034 18.0751 26.7034 18.5333V34.4121C26.7034 34.683 26.7081 34.9533 26.7174 35.2226C26.0568 32.8652 24.3924 30.9156 22.22 29.8699ZM31.3717 44.149C29.8488 41.2075 28.9936 37.888 28.9936 34.4121V19.2885L46.2502 11.8971L63.5131 19.2886V34.4121C63.5131 44.5798 56.1951 53.4081 46.2503 55.3526C44.189 54.9492 42.2404 54.2499 40.4464 53.3039C40.242 52.1284 39.5259 51.123 38.538 50.5275C39.007 49.8672 39.2834 49.0614 39.2834 48.1945C39.2834 45.9691 37.4633 44.149 35.2379 44.149H31.3717ZM35.8274 35.1372L41.6206 40.9305C42.631 41.9471 44.2722 41.9471 45.2827 40.9305C50.2553 35.964 51.7434 34.4085 56.6855 29.4176C57.6897 28.407 57.6897 26.772 56.6732 25.7616C55.6628 24.7572 54.0276 24.7633 53.0233 25.7737L43.4516 35.4374L39.4894 31.4752C38.4728 30.4648 36.8378 30.4648 35.8274 31.4752C34.8108 32.4856 34.8108 34.1268 35.8274 35.1372ZM8.61426 47.445C8.80406 47.445 8.98613 47.5204 9.12025 47.6545C9.25451 47.7888 9.32995 47.9709 9.32995 48.1607C9.32995 51.0227 9.3298 61.6278 9.3298 64.4898C9.3298 64.885 9.00946 65.2055 8.61412 65.2055C7.3432 65.2055 4.70647 65.2055 3.43541 65.2055C3.24561 65.2055 3.06354 65.13 2.92928 64.9958C2.79516 64.8615 2.71973 64.6796 2.71973 64.4898C2.71973 61.6278 2.71973 51.0227 2.71973 48.1607C2.71973 47.7653 3.04021 47.445 3.43541 47.445H8.61426ZM22.9649 55.3134C23.2785 56.216 23.9042 56.9761 24.711 57.4625C24.2421 58.1229 23.9657 58.9285 23.9657 59.7956C23.9657 60.9305 24.4395 61.9614 25.199 62.699C24.4394 63.4354 23.9657 64.4653 23.9657 65.6005C23.9657 66.347 24.1706 67.0478 24.5267 67.6497C22.5158 67.9925 20.754 68.2613 19.1556 68.3349C16.2631 68.4678 13.9498 67.9246 11.6253 65.8546C11.6326 64.0999 11.631 57.7731 11.6206 46.8769C13.3226 45.6355 15.1824 44.4433 16.6637 43.0006C18.4614 41.2497 19.727 39.1482 19.727 36.2724V31.4384C22.5699 31.9792 24.7374 34.4925 24.7374 37.4862V42.122C24.6013 42.9519 24.049 44.1165 23.0482 45.1173C22.6583 45.5072 22.6016 46.1197 22.9134 46.5744C25.8924 50.9207 21.3598 53.8524 19.7154 54.7968C19.1673 55.1116 18.978 55.8119 19.2926 56.36C19.6073 56.9081 20.3079 57.0975 20.8559 56.7828C21.4127 56.4629 22.1821 55.9675 22.9649 55.3134ZM27.4971 67.2785C27.4833 67.2739 27.4696 67.2695 27.4558 67.2652C26.7603 67.0316 26.2559 66.3722 26.2559 65.6005C26.2559 64.6351 27.0456 63.8452 28.0111 63.8452H28.0162L28.9754 63.8409L32.6918 63.8452H32.6932C33.6587 63.8452 34.4484 64.6351 34.4484 65.6005C34.4484 66.566 33.6587 67.3557 32.6932 67.3557H28.0111C27.8324 67.3557 27.6598 67.3286 27.4971 67.2785ZM32.6945 61.555H32.6932L28.9748 61.5507C28.9727 61.5507 28.9705 61.5507 28.9684 61.5507L28.0111 61.555H28.0059C27.0423 61.5523 26.2559 60.7598 26.2559 59.7956C26.2559 58.8301 27.0456 58.0403 28.0111 58.0403H34.4229C35.3885 58.0403 36.1782 58.8301 36.1782 59.7956C36.1782 60.7642 35.3889 61.555 34.4229 61.555H32.6945ZM26.7885 55.7501C25.8231 55.7501 25.0334 54.9604 25.0334 53.995C25.0334 53.0295 25.8231 52.2398 26.7885 52.2398H36.4605C37.4261 52.2398 38.2158 53.0295 38.2158 53.995C38.2158 54.9604 37.4261 55.7501 36.4605 55.7501H26.7885ZM35.2379 49.9496H28.0111C27.0456 49.9496 26.2559 49.1599 26.2559 48.1945C26.2559 47.2289 27.0456 46.4392 28.0111 46.4392H35.2379C36.2035 46.4392 36.9932 47.2289 36.9932 48.1945C36.9932 49.1599 36.2035 49.9496 35.2379 49.9496Z" fill="url(#paint0_linear_78_246)"/>
<defs>
<linearGradient id="paint0_linear_78_246" x1="36.5001" y1="4.64624" x2="36.5001" y2="68.3537" gradientUnits="userSpaceOnUse">
<stop stop-color="#46B5E5"/>
<stop offset="1" stop-color="#8820FC"/>
</linearGradient>
</defs>
</svg>
