<svg width="74" height="73" viewBox="0 0 74 73" fill="none" xmlns="http://www.w3.org/2000/svg">
<g clip-path="url(#clip0_78_250)">
<path d="M47.5701 13.2648L46.9307 0H33.1775L32.5381 13.2648H47.5701Z" fill="url(#paint0_linear_78_250)"/>
<path d="M4.44409 30.084H27.114V37.8545H4.44409V30.084Z" fill="url(#paint1_linear_78_250)"/>
<path d="M68.304 13.2648L67.6646 0H53.9109L53.2715 13.2648H68.304Z" fill="url(#paint2_linear_78_250)"/>
<path d="M52.0862 37.8544H69.4891L68.51 17.542H53.0653L52.0862 37.8544Z" fill="url(#paint3_linear_78_250)"/>
<path d="M31.3528 37.8544H48.7551L47.7766 17.542H32.3319L31.3528 37.8544Z" fill="url(#paint4_linear_78_250)"/>
<path d="M27.637 62.7344H73.1667V73H27.637V62.7344Z" fill="url(#paint5_linear_78_250)"/>
<path d="M13.5503 53.6094H23.3598V73H13.5503V53.6094Z" fill="url(#paint6_linear_78_250)"/>
<path d="M9.27281 49.332H27.637V58.457H73.1667V42.1318H0.166748V73H9.27281V49.332ZM56.5681 49.3081H60.8928V53.6328H56.5681V49.3081ZM49.653 49.3081H53.9777V53.6328H49.653V49.3081ZM42.738 49.3081H47.0627V53.6328H42.738V49.3081ZM35.823 49.3081H40.1477V53.6328H35.823V49.3081Z" fill="url(#paint7_linear_78_250)"/>
</g>
<defs>
<linearGradient id="paint0_linear_78_250" x1="40.0541" y1="0" x2="40.0541" y2="13.2648" gradientUnits="userSpaceOnUse">
<stop stop-color="#46B5E5"/>
<stop offset="1" stop-color="#8820FC"/>
</linearGradient>
<linearGradient id="paint1_linear_78_250" x1="15.7791" y1="30.084" x2="15.7791" y2="37.8545" gradientUnits="userSpaceOnUse">
<stop stop-color="#46B5E5"/>
<stop offset="1" stop-color="#8820FC"/>
</linearGradient>
<linearGradient id="paint2_linear_78_250" x1="60.7877" y1="0" x2="60.7877" y2="13.2648" gradientUnits="userSpaceOnUse">
<stop stop-color="#46B5E5"/>
<stop offset="1" stop-color="#8820FC"/>
</linearGradient>
<linearGradient id="paint3_linear_78_250" x1="60.7876" y1="17.542" x2="60.7876" y2="37.8544" gradientUnits="userSpaceOnUse">
<stop stop-color="#46B5E5"/>
<stop offset="1" stop-color="#8820FC"/>
</linearGradient>
<linearGradient id="paint4_linear_78_250" x1="40.0539" y1="17.542" x2="40.0539" y2="37.8544" gradientUnits="userSpaceOnUse">
<stop stop-color="#46B5E5"/>
<stop offset="1" stop-color="#8820FC"/>
</linearGradient>
<linearGradient id="paint5_linear_78_250" x1="50.4018" y1="62.7344" x2="50.4018" y2="73" gradientUnits="userSpaceOnUse">
<stop stop-color="#46B5E5"/>
<stop offset="1" stop-color="#8820FC"/>
</linearGradient>
<linearGradient id="paint6_linear_78_250" x1="18.455" y1="53.6094" x2="18.455" y2="73" gradientUnits="userSpaceOnUse">
<stop stop-color="#46B5E5"/>
<stop offset="1" stop-color="#8820FC"/>
</linearGradient>
<linearGradient id="paint7_linear_78_250" x1="36.6667" y1="42.1318" x2="36.6667" y2="73" gradientUnits="userSpaceOnUse">
<stop stop-color="#46B5E5"/>
<stop offset="1" stop-color="#8820FC"/>
</linearGradient>
<clipPath id="clip0_78_250">
<rect width="73" height="73" fill="white" transform="translate(0.166748)"/>
</clipPath>
</defs>
</svg>
