<svg width="74" height="74" viewBox="0 0 74 74" fill="none" xmlns="http://www.w3.org/2000/svg">
<g clip-path="url(#clip0_78_265)">
<path d="M9.94706 64.3392H7.08431C5.89914 64.3392 4.93726 63.3773 4.93726 62.1922C4.93726 61.007 5.89914 60.0451 7.08431 60.0451H9.94706V55.1784H7.08431C5.89914 55.1784 4.93726 54.2165 4.93726 53.0314C4.93726 51.8462 5.89914 50.8843 7.08431 50.8843H9.94706V46.0176H7.08431C5.89914 46.0176 4.93726 45.0558 4.93726 43.8706C4.93726 42.6854 5.89914 41.7235 7.08431 41.7235H9.94706V32.5627H2.64706C1.46188 32.5627 0.5 33.5246 0.5 34.7098V71.3529C0.5 72.5381 1.46188 73.5 2.64706 73.5H9.95321C9.94506 70.6457 9.94706 72.5045 9.94706 64.3392Z" fill="url(#paint0_linear_78_265)"/>
<path d="M45.445 2.64706C45.445 1.46188 44.4832 0.5 43.298 0.5H24.9764C23.7912 0.5 22.8293 1.46188 22.8293 2.64706V5.36667H45.445V2.64706Z" fill="url(#paint1_linear_78_265)"/>
<path d="M58.7569 29.1274C50.6282 29.1274 44.0138 35.7418 44.0138 43.8706C44.0138 50.3805 52.811 59.7159 57.3184 63.7867C58.1372 64.5224 59.3753 64.5239 60.1955 63.7867C64.8073 59.6214 73.5001 50.3432 73.5001 43.8706C73.5001 35.7418 66.8857 29.1274 58.7569 29.1274ZM62.1922 46.0176H55.3216C54.1365 46.0176 53.1746 45.0558 53.1746 43.8706C53.1746 42.6854 54.1365 41.7235 55.3216 41.7235H62.1922C63.3774 41.7235 64.3393 42.6854 64.3393 43.8706C64.3393 45.0558 63.3774 46.0176 62.1922 46.0176Z" fill="url(#paint2_linear_78_265)"/>
<path d="M71.353 69.2057H54.0334V66.5992C48.1965 61.1497 39.7196 51.8325 39.7196 43.8704C39.7196 35.0031 45.813 27.5328 54.0334 25.4272V11.8077C54.0334 10.6225 53.0715 9.66064 51.8863 9.66064H16.3883C15.2031 9.66064 14.2412 10.6225 14.2412 11.8077V73.4999H71.353C72.5387 73.4999 73.5 72.5386 73.5 71.3528C73.5 70.1671 72.5387 69.2057 71.353 69.2057ZM39.2902 14.241H42.7255C43.9107 14.241 44.8726 15.2029 44.8726 16.3881C44.8726 17.5733 43.9107 18.5352 42.7255 18.5352H39.2902C38.1051 18.5352 37.1432 17.5733 37.1432 16.3881C37.1432 15.2029 38.1051 14.241 39.2902 14.241ZM28.9844 55.1783H25.5491C24.3639 55.1783 23.402 54.2164 23.402 53.0312C23.402 51.8461 24.3639 50.8842 25.5491 50.8842H28.9844C30.1695 50.8842 31.1314 51.8461 31.1314 53.0312C31.1314 54.2164 30.1695 55.1783 28.9844 55.1783ZM28.9844 46.0175H25.5491C24.3639 46.0175 23.402 45.0556 23.402 43.8704C23.402 42.6853 24.3639 41.7234 25.5491 41.7234H28.9844C30.1695 41.7234 31.1314 42.6853 31.1314 43.8704C31.1314 45.0556 30.1695 46.0175 28.9844 46.0175ZM28.9844 36.8567H25.5491C24.3639 36.8567 23.402 35.8948 23.402 34.7097C23.402 33.5245 24.3639 32.5626 25.5491 32.5626H28.9844C30.1695 32.5626 31.1314 33.5245 31.1314 34.7097C31.1314 35.8948 30.1695 36.8567 28.9844 36.8567ZM28.9844 27.6959H25.5491C24.3639 27.6959 23.402 26.7341 23.402 25.5489C23.402 24.3637 24.3639 23.4018 25.5491 23.4018H28.9844C30.1695 23.4018 31.1314 24.3637 31.1314 25.5489C31.1314 26.7341 30.1695 27.6959 28.9844 27.6959ZM28.9844 18.5352H25.5491C24.3639 18.5352 23.402 17.5733 23.402 16.3881C23.402 15.2029 24.3639 14.241 25.5491 14.241H28.9844C30.1695 14.241 31.1314 15.2029 31.1314 16.3881C31.1314 17.5733 30.1695 18.5352 28.9844 18.5352ZM37.1432 25.5489C37.1432 24.3637 38.1051 23.4018 39.2902 23.4018H42.7255C43.9107 23.4018 44.8726 24.3637 44.8726 25.5489C44.8726 26.7341 43.9107 27.6959 42.7255 27.6959H39.2902C38.1051 27.6959 37.1432 26.7341 37.1432 25.5489Z" fill="url(#paint3_linear_78_265)"/>
</g>
<defs>
<linearGradient id="paint0_linear_78_265" x1="5.22661" y1="32.5627" x2="5.22661" y2="73.5" gradientUnits="userSpaceOnUse">
<stop stop-color="#46B5E5"/>
<stop offset="1" stop-color="#8820FC"/>
</linearGradient>
<linearGradient id="paint1_linear_78_265" x1="34.1372" y1="0.5" x2="34.1372" y2="5.36667" gradientUnits="userSpaceOnUse">
<stop stop-color="#46B5E5"/>
<stop offset="1" stop-color="#8820FC"/>
</linearGradient>
<linearGradient id="paint2_linear_78_265" x1="58.7569" y1="29.1274" x2="58.7569" y2="64.339" gradientUnits="userSpaceOnUse">
<stop stop-color="#46B5E5"/>
<stop offset="1" stop-color="#8820FC"/>
</linearGradient>
<linearGradient id="paint3_linear_78_265" x1="43.8706" y1="9.66064" x2="43.8706" y2="73.4999" gradientUnits="userSpaceOnUse">
<stop stop-color="#46B5E5"/>
<stop offset="1" stop-color="#8820FC"/>
</linearGradient>
<clipPath id="clip0_78_265">
<rect width="73" height="73" fill="white" transform="translate(0.5 0.5)"/>
</clipPath>
</defs>
</svg>
